<?xml version="1.0" standalone="no"?>
<!DOCTYPE svg PUBLIC "-//W3C//DTD SVG 20010904//EN"
 "http://www.w3.org/TR/2001/REC-SVG-20010904/DTD/svg10.dtd">
<svg version="1.0" xmlns="http://www.w3.org/2000/svg"
 width="300.000000pt" height="614.000000pt" viewBox="0 0 300.000000 614.000000"
 preserveAspectRatio="xMidYMid meet">
<metadata>
Created by potrace 1.10, written by Peter Selinger 2001-2011
</metadata>
<g transform="translate(0.000000,614.000000) scale(0.100000,-0.100000)"
fill="#000000" stroke="none">
<path d="M566 5908 c2 -40 6 -114 8 -163 6 -120 38 -202 112 -283 30 -34 69
-70 88 -81 25 -16 39 -36 56 -83 28 -78 102 -220 176 -335 127 -197 207 -282
529 -558 151 -130 264 -248 344 -360 64 -89 143 -221 180 -300 13 -27 32 -67
43 -88 19 -36 42 -193 31 -211 -3 -5 0 -6 8 -4 11 4 14 33 13 139 -1 139 -11
208 -46 319 -28 88 -46 121 -155 294 -109 170 -182 310 -215 411 -26 82 -31
247 -9 306 40 106 81 158 156 197 42 22 63 26 127 25 89 -1 142 -24 192 -86
25 -31 31 -49 34 -100 3 -55 0 -67 -26 -108 -61 -94 -160 -112 -241 -43 -90
78 -48 214 67 214 23 0 44 -4 47 -10 3 -5 16 -10 28 -10 l21 0 -22 23 c-19 18
-33 22 -78 21 -144 -4 -205 -167 -102 -273 42 -42 88 -61 154 -61 82 0 149 48
190 135 55 117 2 276 -116 343 -41 24 -55 26 -155 26 -97 0 -116 -3 -165 -25
-107 -50 -167 -131 -201 -274 -27 -112 -22 -208 17 -325 35 -106 99 -216 249
-430 142 -203 145 -209 185 -332 31 -95 37 -138 20 -138 -5 0 -10 8 -10 18 0
29 -83 192 -152 299 -81 123 -149 206 -252 308 -75 73 -85 88 -123 180 -87
210 -125 342 -153 525 -28 181 -32 200 -41 206 -5 3 -9 14 -9 24 0 21 -51 119
-88 168 -31 40 -20 56 13 20 78 -84 135 -224 160 -388 40 -271 142 -578 232
-698 37 -49 38 -32 3 37 -65 131 -104 269 -160 571 -48 258 -151 454 -287 544
-33 22 -165 76 -185 76 -23 0 -2 -23 40 -44 52 -27 68 -43 116 -120 77 -120
103 -201 141 -436 27 -162 105 -368 186 -488 27 -41 36 -62 24 -62 -3 0 -29
24 -58 53 -28 29 -106 100 -171 157 -131 114 -215 214 -319 378 -71 113 -167
299 -167 324 0 8 -13 28 -28 44 -39 41 -71 124 -147 379 -1 6 -6 2 -10 -7 -6
-15 9 -92 36 -188 6 -19 13 -46 16 -60 6 -25 6 -25 -15 -6 -26 22 -77 127 -89
181 -13 57 -16 232 -5 239 13 8 167 -137 185 -176 17 -37 41 -157 33 -165 -3
-3 -8 3 -12 13 -9 30 -63 137 -79 158 -8 11 -18 17 -21 13 -4 -4 -3 -12 3 -19
5 -7 22 -47 37 -88 16 -41 32 -84 37 -95 4 -11 16 -45 25 -75 9 -30 18 -61 20
-67 2 -7 8 -13 14 -13 6 0 10 45 10 123 0 153 -19 218 -85 294 -45 51 -184
163 -203 163 -7 0 -9 -28 -6 -72z m788 -680 c17 -83 15 -102 -4 -43 -22 68
-23 75 -11 75 5 0 12 -15 15 -32z m444 -141 c-40 -39 -100 -139 -105 -177 -1
-8 -6 -48 -10 -88 -8 -76 -30 -102 -25 -29 10 141 62 263 136 318 55 40 57 28
4 -24z m-109 -428 c5 -30 15 -74 24 -99 9 -24 14 -46 12 -48 -7 -7 -33 62 -64
168 -4 14 -6 31 -3 39 8 24 23 -5 31 -60z"/>
<path d="M1078 4645 c-47 -17 -85 -42 -92 -62 -4 -9 1 -36 10 -60 21 -55 13
-64 -23 -23 -28 31 -78 49 -135 50 -25 0 -28 -4 -28 -34 0 -105 24 -129 123
-119 64 6 85 23 28 23 -31 0 -111 48 -111 67 0 18 13 16 53 -7 19 -11 52 -21
75 -23 22 -1 44 -6 48 -10 16 -16 21 -5 17 41 -5 53 9 99 32 108 23 9 31 -4
17 -26 -14 -23 -16 -120 -2 -120 5 0 21 20 35 43 21 37 24 51 19 90 -10 68
-20 78 -66 62z"/>
<path d="M2167 4629 c-89 -21 -131 -63 -149 -152 -20 -96 20 -248 104 -398 20
-36 41 -85 47 -108 11 -51 18 -60 27 -36 11 29 -24 152 -61 216 -92 158 -108
326 -39 409 25 29 54 40 54 20 0 -5 -4 -10 -9 -10 -21 0 -54 -94 -53 -150 2
-66 42 -195 77 -248 33 -51 54 -112 56 -169 2 -71 -12 -225 -23 -247 -6 -12
-6 -22 0 -28 26 -26 64 129 65 266 1 73 -4 97 -53 236 -44 128 -53 167 -54
225 0 59 3 76 23 104 13 18 39 40 57 47 68 29 21 44 -69 23z"/>
<path d="M1153 4469 c-54 -27 -58 -52 -8 -44 19 3 52 7 73 11 20 3 45 7 55 10
11 4 17 0 17 -10 0 -23 -68 -49 -128 -48 -33 0 -52 -3 -50 -10 7 -19 100 -50
134 -43 35 6 124 79 124 101 0 19 -61 43 -124 49 -39 4 -61 0 -93 -16z"/>
<path d="M2500 4391 c-38 -20 -48 -47 -30 -81 17 -31 4 -37 -24 -11 -25 24
-90 46 -106 36 -6 -3 -10 -23 -10 -44 0 -47 24 -71 73 -71 44 0 57 15 19 25
-33 8 -52 23 -52 41 0 12 6 12 38 -2 20 -8 49 -17 65 -19 26 -4 27 -2 27 38 0
39 13 67 31 67 4 0 5 -24 2 -52 -6 -69 11 -82 88 -68 58 11 68 8 49 -15 -8
-10 -30 -15 -62 -15 -59 0 -61 -16 -4 -35 43 -15 57 -12 104 23 42 32 41 48
-5 68 -36 15 -62 14 -126 -2 l-29 -7 16 31 c26 50 19 112 -13 112 -9 0 -32 -8
-51 -19z"/>
<path d="M950 4370 c-14 -5 -41 -13 -60 -17 -26 -6 -46 -23 -79 -67 -42 -56
-44 -59 -26 -72 31 -23 136 -21 172 2 24 15 67 89 61 104 -2 5 -25 -6 -53 -25
-27 -19 -61 -34 -75 -35 -15 0 -32 -6 -39 -12 -10 -11 -12 -8 -9 10 2 17 13
28 39 36 52 18 109 55 109 72 0 15 -3 16 -40 4z"/>
<path d="M1360 4349 c0 -18 68 -128 116 -188 25 -31 87 -99 138 -151 113 -116
173 -188 218 -260 42 -66 179 -407 202 -504 21 -84 49 -261 47 -300 0 -21 3
-26 10 -19 14 14 14 33 0 163 -31 283 -83 488 -161 625 -85 150 -266 356 -351
401 -22 11 -28 19 -21 26 8 8 20 4 41 -13 16 -13 48 -37 71 -54 56 -40 165
-155 221 -235 142 -199 207 -412 225 -732 4 -68 11 -118 17 -118 7 0 8 75 4
217 -4 183 -8 218 -21 225 -9 5 -16 22 -16 38 0 57 -32 166 -75 258 -39 82
-56 105 -142 190 -54 54 -165 150 -248 214 -132 102 -176 141 -240 211 -18 19
-35 22 -35 6z m585 -719 c17 -33 20 -64 5 -55 -5 3 -10 17 -10 31 0 13 -4 24
-10 24 -5 0 -10 7 -10 15 0 23 8 18 25 -15z"/>
<path d="M1052 4329 c-7 -11 -15 -48 -19 -83 -5 -61 -5 -63 24 -84 31 -22 99
-42 121 -35 8 3 12 28 12 76 -1 65 -4 76 -30 107 -41 49 -56 33 -40 -44 6 -30
16 -58 21 -61 5 -4 9 -16 9 -28 0 -13 -3 -17 -8 -11 -4 6 -14 13 -23 16 -20 8
-42 84 -37 128 4 39 -12 49 -30 19z"/>
<path d="M2425 4200 c-3 -5 -17 -10 -30 -10 -24 0 -85 -62 -85 -87 0 -29 68
-43 112 -22 29 13 60 55 56 75 -3 13 -6 12 -23 -4 -11 -10 -29 -21 -40 -24
-11 -3 -28 -9 -37 -13 -13 -5 -18 -3 -18 8 0 8 25 27 55 42 30 14 55 31 55 36
0 12 -37 12 -45 -1z"/>
<path d="M2505 4168 c-3 -7 -6 -33 -7 -57 -3 -36 1 -46 22 -61 34 -25 86 -35
93 -18 10 26 -10 110 -32 131 l-21 21 0 -37 c0 -21 5 -47 10 -57 6 -10 6 -21
2 -24 -18 -11 -35 15 -40 63 -4 48 -17 66 -27 39z"/>
<path d="M2516 3776 c-56 -21 -103 -71 -141 -151 -41 -85 -65 -185 -65 -268 0
-77 -15 -139 -51 -209 -12 -23 -11 -28 1 -28 6 0 10 7 10 15 0 8 3 15 8 15 7
0 28 42 57 114 8 21 15 64 15 95 1 65 28 185 58 252 39 90 106 144 168 137 28
-3 27 -4 -21 -28 -92 -46 -150 -160 -161 -320 -3 -41 -10 -93 -16 -115 -17
-57 -79 -157 -135 -216 -53 -56 -61 -69 -41 -69 22 0 164 157 197 220 17 32
43 105 57 162 39 163 64 230 103 276 42 51 96 72 137 54 32 -15 34 -15 34 4 0
17 -87 59 -141 68 -19 3 -51 -1 -73 -8z"/>
<path d="M1002 3720 c-205 -54 -334 -183 -403 -405 -7 -22 -13 -83 -13 -135
-1 -78 4 -106 23 -155 32 -79 69 -133 130 -187 60 -55 101 -75 178 -89 142
-27 296 17 368 105 50 61 47 89 -4 44 l-26 -23 25 30 c40 47 70 93 70 106 0 8
6 7 18 -3 9 -9 40 -28 67 -43 53 -29 91 -63 82 -72 -6 -6 -70 36 -75 49 -2 4
-10 8 -18 8 -24 0 33 -68 81 -95 72 -43 80 -32 41 52 -22 47 -30 54 -95 85
-61 28 -71 36 -65 53 23 76 5 159 -51 237 -61 83 -208 131 -288 93 -37 -17
-91 -66 -108 -97 -17 -31 8 -29 38 2 54 59 88 73 154 66 33 -3 72 -12 88 -20
74 -39 130 -154 117 -244 -15 -114 -119 -212 -254 -241 -81 -17 -104 -14 -180
24 -153 77 -236 232 -202 376 40 168 131 263 302 316 75 24 282 23 362 -1 332
-101 546 -388 546 -736 0 -37 4 -50 13 -48 19 7 20 143 2 218 -29 116 -32 124
-52 170 -64 145 -218 308 -340 361 -18 8 -33 17 -33 21 0 5 -8 8 -18 8 -10 0
-22 4 -27 9 -6 4 -50 19 -100 32 -247 65 -505 -11 -624 -185 -41 -59 -71 -157
-71 -232 0 -59 4 -75 36 -149 47 -109 188 -214 301 -223 79 -7 184 24 241 70
22 19 13 -8 -10 -28 -23 -20 -46 -32 -106 -54 -39 -15 -211 -16 -238 -2 -10 5
-41 21 -67 33 -80 39 -152 137 -187 254 -13 46 -9 189 8 249 21 76 81 181 133
234 99 98 224 142 407 142 209 0 363 -48 519 -162 198 -145 313 -368 328 -640
10 -183 -15 -297 -104 -479 -48 -100 -90 -178 -101 -189 -11 -11 -50 -70 -50
-75 0 -3 -13 -23 -28 -43 -16 -20 -55 -73 -88 -117 -32 -44 -72 -96 -89 -116
-16 -20 -38 -46 -48 -58 -10 -12 -68 -84 -130 -159 -130 -157 -227 -286 -227
-300 0 -5 -7 -15 -15 -22 -13 -11 -52 -86 -70 -135 -5 -13 -9 -16 -12 -7 -5
14 6 47 42 127 21 45 68 112 275 389 36 48 70 95 75 104 6 9 30 44 55 77 25
33 62 87 84 120 21 33 42 62 47 63 5 2 9 8 9 14 0 5 14 29 30 53 17 24 30 48
30 53 0 6 4 12 8 14 5 2 39 66 76 143 37 77 71 147 76 155 4 9 11 31 15 50 l7
35 -20 -20 c-12 -11 -39 -61 -61 -112 -97 -221 -195 -374 -525 -813 -212 -283
-230 -316 -281 -505 -47 -177 -46 -492 1 -680 26 -100 83 -269 99 -289 26 -34
28 -9 6 71 -65 241 -66 243 -66 493 0 226 1 239 28 340 47 176 87 246 296 505
350 434 351 435 443 575 136 205 197 345 233 535 8 42 15 100 15 128 0 29 4
59 9 67 7 10 4 18 -8 27 -14 9 -19 31 -23 95 -7 99 -38 197 -100 306 -51 92
-194 240 -280 290 -197 116 -466 162 -656 112z"/>
<path d="M1665 3033 c-16 -2 -41 -13 -55 -23 -23 -17 -25 -25 -25 -100 0 -45
3 -90 7 -101 11 -30 28 -22 28 13 0 44 35 111 76 147 37 33 64 32 64 -3 0 -17
-2 -18 -10 -6 -8 13 -12 12 -28 -6 -11 -12 -27 -35 -36 -52 -21 -40 -33 -122
-18 -122 6 0 33 22 60 48 46 45 51 54 63 121 11 62 10 74 -2 82 -14 9 -65 10
-124 2z m-19 -83 c-35 -39 -49 -33 -25 11 10 19 49 41 58 33 2 -2 -13 -22 -33
-44z m104 -23 c0 -18 -28 -75 -41 -83 -11 -7 -3 40 13 74 13 24 28 29 28 9z"/>
<path d="M2249 2987 c-102 -38 -141 -97 -163 -249 -9 -59 -23 -126 -32 -150
-29 -81 -30 -85 -10 -69 29 24 42 60 70 185 38 173 69 201 220 197 40 -1 53
-6 81 -34 42 -42 61 -107 46 -157 -17 -56 -43 -74 -107 -74 -78 0 -100 23 -97
105 2 70 -14 76 -36 13 -13 -36 -12 -44 7 -87 49 -111 204 -112 288 -2 32 42
39 87 25 157 -19 88 -110 164 -209 174 -27 2 -63 -2 -83 -9z m130 -43 c2 -2
-29 -4 -70 -3 -47 0 -67 3 -54 8 19 8 115 4 124 -5z m119 -107 c7 -18 11 -56
11 -83 l-1 -49 -9 57 c-4 32 -13 67 -19 77 -12 24 -13 31 -2 31 4 0 13 -15 20
-33z"/>
<path d="M1370 2926 c0 -8 5 -18 10 -21 6 -3 10 -15 10 -26 0 -10 9 -24 20
-31 23 -15 26 -28 7 -28 -19 0 -43 30 -51 63 -10 43 -28 32 -24 -15 3 -40 6
-45 48 -65 56 -28 165 -43 158 -22 -2 8 -15 15 -27 17 -25 4 -131 100 -131
119 0 6 -4 15 -10 18 -5 3 -10 -1 -10 -9z"/>
<path d="M1740 2790 c-8 -5 -25 -10 -37 -10 -13 0 -23 -6 -23 -14 0 -13 136
-57 170 -54 34 3 50 -3 50 -17 0 -17 -1 -17 -90 -15 -40 1 -79 9 -104 21 -47
23 -46 22 -46 6 0 -21 93 -106 126 -116 20 -6 40 -4 60 4 32 14 25 19 -38 30
-63 10 -54 25 14 25 52 0 67 4 82 21 17 21 17 22 -1 41 -11 11 -42 26 -69 33
-40 12 -42 14 -14 11 19 -2 45 -7 58 -11 37 -12 27 19 -13 38 -39 19 -102 22
-125 7z"/>
<path d="M1324 2743 c-70 -39 -134 -89 -134 -104 0 -33 116 -89 187 -89 43 0
89 23 122 63 53 62 53 77 0 50 -41 -21 -168 -30 -198 -14 -36 20 -23 31 37 31
62 0 188 31 185 46 -2 10 -39 19 -117 28 -39 5 -58 2 -82 -11z m91 -22 c-14
-14 -75 -23 -75 -12 0 11 23 18 60 20 15 1 20 -3 15 -8z m-132 -74 c6 -17 73
-37 121 -37 22 0 35 -4 31 -10 -15 -25 -151 -5 -185 27 -13 12 -13 15 0 23 20
13 27 12 33 -3z"/>
<path d="M1567 2640 c-40 -43 -77 -110 -77 -136 0 -33 45 -85 103 -120 32 -19
62 -32 67 -29 15 10 60 136 60 171 0 42 -35 114 -55 114 -22 0 -40 -85 -37
-167 3 -51 22 -39 23 15 0 26 4 56 9 67 7 19 8 19 15 2 15 -35 -15 -157 -38
-157 -5 0 -11 9 -14 20 -6 21 -23 28 -23 9 0 -16 -58 29 -65 51 -8 26 4 82 16
74 5 -3 9 -18 9 -33 0 -30 21 -81 33 -81 5 0 5 15 1 33 -12 54 -5 129 15 163
18 30 18 44 0 44 -3 0 -23 -18 -42 -40z"/>
<path d="M665 2379 c-104 -32 -186 -120 -211 -229 -45 -192 170 -372 342 -286
86 44 125 146 89 233 -20 48 -41 71 -87 94 -38 20 -108 26 -108 10 0 -11 25
-21 51 -21 33 0 79 -29 99 -63 31 -50 27 -137 -6 -177 -88 -105 -249 -70 -319
70 -47 92 12 240 120 298 22 12 56 17 125 17 85 0 101 -3 153 -29 66 -34 98
-72 135 -159 23 -56 26 -74 25 -197 0 -148 -4 -171 -98 -470 -25 -80 -45 -151
-45 -158 0 -8 -10 -53 -22 -101 -38 -150 -29 -557 14 -605 4 -6 8 -18 8 -28 0
-10 5 -18 11 -18 11 0 3 77 -13 120 -18 47 -11 278 12 398 29 157 71 322 124
488 48 152 74 264 83 359 10 112 -42 292 -105 359 -89 94 -246 134 -377 95z"/>
<path d="M1962 1753 c-49 -71 -181 -199 -231 -222 -133 -61 -338 -209 -459
-333 -91 -93 -136 -158 -163 -235 -25 -73 -43 -232 -35 -314 3 -38 9 -101 12
-139 4 -39 11 -73 17 -77 7 -4 8 23 3 83 -25 308 12 438 166 594 71 72 271
231 346 275 18 11 32 23 32 27 0 4 5 8 10 8 16 0 70 52 70 67 0 7 5 13 11 13
12 0 84 49 117 79 32 31 27 11 -11 -45 -19 -29 -59 -66 -94 -89 -33 -22 -73
-50 -89 -62 -16 -12 -69 -52 -119 -89 -179 -133 -291 -240 -348 -331 -42 -67
-69 -181 -71 -304 -3 -121 2 -169 16 -169 7 0 8 15 5 38 -4 21 -2 84 3 142 15
180 70 261 335 495 83 72 191 164 240 204 141 114 186 174 258 343 40 95 41
98 27 98 -5 0 -27 -26 -48 -57z"/>
<path d="M620 1553 c-44 -8 -60 -32 -60 -85 0 -26 -3 -48 -7 -48 -5 0 -17 17
-28 38 -20 38 -115 100 -134 87 -17 -10 -33 -112 -21 -134 13 -25 63 -49 110
-53 38 -3 54 14 20 22 -26 6 -90 68 -90 86 0 22 15 17 50 -16 17 -16 47 -35
66 -42 19 -6 34 -16 34 -20 0 -4 7 -8 15 -8 10 0 15 10 15 26 0 47 58 129 78
110 2 -3 -7 -29 -22 -57 -26 -53 -32 -85 -18 -105 11 -16 64 -32 132 -40 46
-5 60 -10 60 -23 0 -14 -10 -15 -72 -11 -40 3 -83 11 -95 18 -34 19 -30 -7 5
-40 33 -31 64 -48 89 -48 37 0 94 22 120 46 l28 24 -35 30 c-19 17 -54 40 -78
51 -39 19 -48 20 -88 9 -24 -7 -47 -10 -50 -7 -4 3 10 19 29 36 25 22 36 42
41 73 14 85 15 83 -29 84 -22 1 -51 0 -65 -3z"/>
<path d="M350 1322 c-58 -38 -90 -66 -90 -78 0 -19 100 -64 142 -64 30 0 47 8
78 36 58 53 53 67 -16 42 -38 -14 -66 -18 -90 -13 -50 9 -42 36 12 41 111 10
158 36 87 48 -60 9 -96 6 -123 -12z"/>
<path d="M569 1277 c-22 -17 -67 -91 -74 -119 -4 -16 1 -33 16 -52 21 -27 90
-76 107 -76 10 0 52 108 52 133 0 26 -33 87 -46 87 -16 0 -27 -55 -23 -113 3
-37 1 -43 -13 -39 -31 8 -37 79 -12 142 18 45 16 57 -7 37z"/>
</g>
</svg>
